<?xml version="1.0" encoding="UTF-8"?>
<!DOCTYPE svg PUBLIC "-//W3C//DTD SVG 1.1//EN" "http://www.w3.org/Graphics/SVG/1.1/DTD/svg11.dtd">
<!-- Creator: CorelDRAW X7 -->
<svg xmlns="http://www.w3.org/2000/svg" xml:space="preserve" width="36px" height="33px" version="1.1" style="shape-rendering:geometricPrecision; text-rendering:geometricPrecision; image-rendering:optimizeQuality; fill-rule:evenodd; clip-rule:evenodd"
viewBox="0 0 24805 22674"
 xmlns:xlink="http://www.w3.org/1999/xlink">
 <defs>
  <style type="text/css">
   <![CDATA[
    .fil0 {fill:#CCCCCC}
   ]]>
  </style>
 </defs>
 <g id="Слой_x0020_1">
  <metadata id="CorelCorpID_0Corel-Layer"/>
  <path class="fil0" d="M9544 12209c-116,-500 -387,-498 -387,-1695 0,-391 173,-962 305,-1245 534,-1139 1646,-1856 3037,-1856 386,0 558,97 921,97 754,0 1040,-1047 521,-1490 -167,-143 -280,-175 -549,-227l-1033 -115c-116,3 -157,32 -343,39 -2412,83 -4555,2344 -4555,4651 0,1127 35,1571 549,2601 111,225 215,343 323,548l-1611 1587c-690,-348 -1868,-1095 -2422,-1623 -127,-121 -194,-154 -315,-266 -832,-769 -1508,-1607 -2144,-2556 129,-192 255,-393 387,-581l1394 -1612c1231,-1231 3203,-2520 4925,-3020 2080,-603 3422,-736 5547,-500 722,80 1210,410 1737,-64 354,-321 427,-1211 -423,-1444 -362,-99 -936,-179 -1323,-227 -464,-57 -996,-69 -1442,-108l-2130 143c-245,27 -429,63 -672,103 -2190,367 -4604,1491 -6342,2913l-823 726c-541,478 -1042,1033 -1493,1607 -215,275 -1183,1603 -1183,1919l0 290c0,440 1239,1948 1627,2443 302,388 676,733 1026,1057 363,335 230,268 711,646 420,330 1657,1283 2062,1378 -65,243 -2330,2403 -2556,2627l-1961 1963c-455,454 -521,481 -521,1029 0,362 339,727 872,727 502,0 895,-532 1174,-811 717,-716 6942,-6884 7110,-7134 195,103 305,201 516,308 2541,1282 5516,356 6800,-2198 472,-938 485,-1513 485,-2519 0,-2107 -1793,-1458 -1793,-630 0,313 97,486 97,1017 0,1954 -1914,3671 -4136,3070 -282,-75 -435,-207 -660,-260 56,-212 1334,-1407 1513,-1586l10078 -10078c286,-285 618,-540 618,-1029 0,-545 -410,-824 -970,-824 -416,0 -1348,1082 -1659,1393l-10077 10078c-141,140 -247,246 -388,387 -133,134 -229,299 -424,351zm9738 -5910c0,880 470,849 1417,1683 874,771 1622,1715 2266,2677 -83,123 -160,223 -242,339 -473,665 -770,1084 -1370,1683 -117,117 -198,199 -314,315 -693,702 -1636,1334 -2474,1839 -272,164 -554,286 -833,427 -896,452 -2551,1011 -3780,1113 -366,30 -728,101 -1112,99 -485,-3 -766,-15 -1033,226 -560,507 -120,1469 450,1469 1973,0 3012,-177 4767,-758 303,-99 566,-200 847,-315 138,-56 260,-126 395,-187l1582 -840c1237,-735 2636,-1934 3525,-3064l531 -679c190,-275 901,-1235 901,-1522 0,-674 -365,-1075 -872,-1792 -495,-701 -639,-773 -1099,-1323l-1205 -1169c-672,-525 -1347,-1339 -2087,-737 -111,90 -260,338 -260,516z"/>
 </g>
</svg>
