<?xml version="1.0" encoding="UTF-8"?>
<!DOCTYPE svg PUBLIC "-//W3C//DTD SVG 1.1//EN" "http://www.w3.org/Graphics/SVG/1.1/DTD/svg11.dtd">
<!-- Creator: CorelDRAW X7 -->
<svg xmlns="http://www.w3.org/2000/svg" xml:space="preserve" width="1424px" height="413px" version="1.1" style="shape-rendering:geometricPrecision; text-rendering:geometricPrecision; image-rendering:optimizeQuality; fill-rule:evenodd; clip-rule:evenodd"
viewBox="0 0 12747326 3696939"
 xmlns:xlink="http://www.w3.org/1999/xlink">
 <defs>
  <style type="text/css">
   <![CDATA[
    .fil0 {fill:#FEFEFE}
   ]]>
  </style>
 </defs>
 <g id="Слой_x0020_1">
  <metadata id="CorelCorpID_0Corel-Layer"/>
  <path class="fil0" d="M0 1122576l0 1852572c0,12488 9474,25642 14359,34894 51105,7741 640868,1946 767407,2031 31088,10 23971,-1904 41461,-13990 8385,-287485 -1206,-592851 412,-883075 -116,-23654 -2559,-44866 8787,-66955 8322,-16220 28571,-21528 48186,-21528l684982 0c229731,0 497411,192933 511379,438154 4600,80806 645,151451 -25451,231887 -71544,220499 -320255,328618 -537888,328618l-519637 -10c-13514,-42 -29322,-719 -42550,539 -67801,6471 -78903,-7994 -116695,7444 -5456,30295 286,61921 -2633,92607 -16823,176332 -8448,348899 -8448,525199 0,56222 59764,44189 95419,42983 17955,-602 9263,2993 22935,2993l722774 0c54192,0 96879,-4875 146482,-4462 44442,370 219769,-29195 259263,-41546l112698 -39292c374900,-201118 658939,-475999 733760,-935343 19668,-120713 18198,-228451 994,-348434 -76820,-535583 -550947,-982048 -1111484,-982048l-808973 0c-44612,0 -173868,40308 -173868,-38933 0,-178161 31965,-399559 186060,-518273 12181,-9380 12562,-6324 25240,-17247 13376,-11546 9273,-9950 27767,-19339 56127,-28497 4409,-13176 117720,-57396 90556,-35349 1048706,-16559 1216568,-16062 91592,264 78459,-7328 78459,-94753 -10,-76418 -6175,-425318 1618,-480990 5129,-36702 21888,-76048 -17468,-97100 -16506,-8830 -131847,-3395 -157098,-3395 -214366,0 -1250331,-8438 -1358164,6831 -538977,142241 -847864,500932 -938103,1056721 -1046,6419 -6270,56381 -6270,56698zm1653210 1321124c19604,402 94775,46938 109029,55672 20058,12298 37981,17511 21845,46737 -11758,21317 -24975,27482 -48016,36829 -29131,11822 -92300,69239 -101880,8174 -2845,-18071 5065,-51791 4430,-79157 -655,-27979 -3521,-48979 14592,-68255zm-567569 82488c25790,-32875 114590,-79718 166657,-78480 3468,53483 -12329,51220 -12329,83206 0,32251 45129,80627 3045,89012 -27450,5477 22110,-127 -7783,1205 -6746,296 -6228,-327 -12054,-1268 -8935,-1449 -19520,-4251 -26742,-7381 -14317,-6207 -28613,-19192 -40752,-26171 -20704,-11927 -57427,-22543 -70042,-60123zm-187677 6143l72231 74293c65992,65548 206446,141543 289082,158726 155300,32303 272110,29575 426036,-24955 76069,-26963 274384,-126549 291028,-210665 4811,-24341 -26055,-51136 -37675,-60018 -108490,-88525 -170939,-138709 -317548,-178298 -62323,-16824 -204331,-26520 -276541,-13694 -107527,19086 -292508,81674 -379225,163093 -38585,36237 -63825,50163 -67388,91518zm4527134 649602l358426 0c82213,0 38521,-93336 37072,-100104 -3405,-15892 -1216,-37908 -1269,-54741 15882,-468565 13567,-929051 13472,-1398843 -22,-74663 8945,-92734 8945,-108690 0,-28074 -20016,-52817 -48175,-52817l-359029 0c-81208,0 -58326,89477 -58326,161507l-32 1483974c-327,47784 -2453,69714 48916,69714zm506187 -929855l0 297732c0,54794 71173,40985 136277,40985l363745 10c26784,21 65622,-4399 82361,-1596 56994,9548 44315,43057 44315,135463 0,262393 -9855,534684 -13429,798695 0,72992 75900,43575 103858,43522 53705,-116 299815,6419 331367,-4610 60632,-21179 3479,-96012 3479,-119253l17902 -831771 -127 -983094c-53,-193081 108764,-161423 -409699,-161423 -56497,0 -42296,78554 -42296,137885l63 543545c698,58580 10299,57480 -122521,57480l-447850 751c-30189,3193 -47445,11250 -47445,45679zm3557489 167365c-48429,48345 -71681,43132 -93157,57301 -147845,97524 -247188,356100 -213880,521276 36565,181597 119105,295426 257191,408684 124181,91909 279566,155871 436166,155871l803073 0c65569,0 16474,-111650 15956,-119549 -5297,-79876 17479,-216555 -2548,-249705 -47456,-7676 -615565,-2463 -712549,-2432 -37347,11 -45828,7053 -105359,-7127 -40298,-9590 -48461,-22247 -83767,-38034 -16464,-7360 -81219,-76059 -91063,-93390 -7582,-13323 -10120,-31996 -14402,-46652 -12594,-43036 -21212,-21169 -19996,-101627 561,-36977 14423,-66161 24521,-96519 30887,-92913 100041,-147454 191622,-176205 35412,-11124 69873,-9210 112613,-9210l614116 0c129119,0 104809,10077 104809,-185732 0,-25419 -1438,-55323 116,-80193 3881,-62027 33192,-117889 -38468,-119496 -178795,-4029 -413897,296 -595548,296 -49623,0 -122859,4377 -169627,-296 -25156,-2517 -41302,-14656 -61403,-22607 -28815,-11410 -34186,-4621 -72305,-55366 -6810,-9062 -9654,-17775 -15047,-27355 -15428,-27376 -15237,-26265 -21138,-65854 -8046,-53991 21085,-126888 56212,-153788 30389,-23274 6386,-24606 79580,-47393 32261,-10045 27058,-12837 71384,-12530l595305 53c42772,0 134998,13534 159138,-12467 21741,-23400 11230,-186039 11642,-244418 487,-67800 42804,-129097 -57321,-128357l-285096 74c-179747,42 -509877,-12298 -675254,22131 -193938,40382 -426946,213351 -445630,409488 -3373,35465 -5329,63962 -4980,103477 2453,276415 203908,321111 245094,417651zm-2174085 762490l344775 -4483c25103,0 75826,26657 75826,-55789 0,-21602 -13428,-27957 -13428,-51992 0,-141332 972,-309299 7941,-450293 4282,-86738 41513,-68900 265438,-68900 209016,0 455073,195058 477754,396641 6831,60726 8671,424112 5445,500910 -1120,26478 -7867,61974 -7274,91687 13735,13408 27228,31817 52869,31817l113375 -4493c44336,0 264645,4049 292434,-5573 47033,-16294 5139,-84370 5139,-108986 4145,-342544 83629,-921713 -309448,-1056394 -35190,-12054 -50892,-15374 -54932,-59510 21191,-11674 35846,-12023 60991,-19699 278117,-84804 416594,-850138 293978,-850138l-406263 0c-60039,0 -45214,103488 -45278,161602 -95,78343 -5720,173488 -36205,244714 -142855,333747 -337923,287729 -668614,297287 -20048,-6756 -29967,-14486 -33848,-37019l-222 -552491c-21,-26847 7497,-46441 7423,-61487 -95,-16379 -9358,-39473 -21719,-47361 -16241,-10363 -345600,-7825 -401663,-5403 -57216,2463 -51675,40255 -49444,90745 7941,179959 0,380199 0,562431l0 694710c0,77634 11917,209841 2379,277387 -7116,50364 -10288,90080 42571,90080zm3674966 -1657651c0,255954 -3997,523835 2739,775749 560,21191 -2739,-5107 -2739,18209l13324 907491c-53,18948 4599,38150 4599,47159l0 179589c0,13588 -38320,73711 1660,108679 15142,13250 82657,1407 131890,1417 88937,21 213034,7148 297752,-1343 39399,-66637 -2379,-55650 -1670,-137060 4430,-506324 17954,-1005353 17753,-1512660 74,-33139 14593,-59648 49910,-59648l321227 0c276255,0 430403,251491 430403,504188 0,184072 -116737,368355 -297203,417599 -122965,33540 -123948,23135 -260744,23135 -61308,0 -87066,-8290 -126761,18473l-201 169342c0,19287 4484,15248 4484,28360l0 56708c0,26435 -41228,112264 46895,112264l108648 -4483c89213,0 262404,3828 333736,-5964 254273,-34905 545332,-272280 620206,-518167 110171,-361599 77286,-607867 -133803,-886163 -115986,-118641 -248108,-235092 -413855,-271001 -92385,-19995 -129563,-33900 -231496,-33900l-850349 4420c-26435,-244 -66405,-11399 -66405,57607zm-6791457 1376161c-34101,55006 -18885,70740 -81313,64850 -23876,-34947 -17014,-57966 -32008,-95895 -110308,-279016 -183289,-624732 -303367,-877313 -7455,-15681 -10469,-28962 -15227,-45404 -13323,-46008 -36269,-55662 -4399,-82604 29988,-25357 182116,-12213 236561,-12213 81885,0 163770,0 245655,0 259803,0 434252,42274 372648,353858 -14179,71660 -324853,543545 -418550,694721zm-457113 -1425669c-31901,90196 7656,153408 -7846,266750 -2749,20101 -6957,23062 -22956,29142 -21518,-27714 -14021,-54985 -29808,-83767 -19488,-35507 -19149,-43491 -30929,-83217 -9474,-31955 -19414,-55619 -27407,-85311 -8872,-32959 -25822,-51633 -63021,-51633l-401537 0c-10426,0 -17616,4906 -25483,8459 -16770,59553 559787,1656256 569092,1684150 23632,35021 82656,18103 89403,18103l179514 0c24331,0 32959,15226 27566,37791 -8385,35085 -175623,249958 -195121,272724 -37316,43544 -53547,41789 -20598,91169 74493,3056 480355,-9738 509221,-17468 45363,-12160 23158,-14053 45278,-45214 204945,-288522 625525,-877651 727871,-1138956 8544,-21814 10775,-44210 22692,-66679 22586,-42592 38510,-193716 38510,-247780 0,-266528 -150510,-440904 -375641,-552776 -14074,-6990 -33783,-10469 -51918,-14984 -162839,-40519 -859115,-51527 -956882,-20503z"/>
 </g>
</svg>
