<?xml version="1.0" encoding="UTF-8"?>
<!DOCTYPE svg PUBLIC "-//W3C//DTD SVG 1.1//EN" "http://www.w3.org/Graphics/SVG/1.1/DTD/svg11.dtd">
<!-- Creator: CorelDRAW X7 -->
<svg xmlns="http://www.w3.org/2000/svg" xml:space="preserve" width="18px" height="16px" version="1.1" style="shape-rendering:geometricPrecision; text-rendering:geometricPrecision; image-rendering:optimizeQuality; fill-rule:evenodd; clip-rule:evenodd"
viewBox="0 0 1260 1089"
 xmlns:xlink="http://www.w3.org/1999/xlink">
 <defs>
  <style type="text/css">
   <![CDATA[
    .fil0 {fill:#CCCCCC}
   ]]>
  </style>
 </defs>
 <g id="Слой_x0020_1">
  <metadata id="CorelCorpID_0Corel-Layer"/>
  <path class="fil0" d="M213 343c87,-61 205,-160 288,-215 0,227 -15,140 169,197 99,31 169,74 234,124 129,98 248,288 262,456l-56 -66c-19,-25 -36,-44 -60,-65 -124,-104 -361,-246 -528,-221 -37,59 -10,60 -20,157l-192 -144c-35,-26 -65,-48 -99,-74 -27,-20 -82,-56 -97,-76l99 -73zm372 -322c-43,-27 -44,-30 -85,2l-361 271c-149,112 -180,116 -84,187l357 269c72,54 106,98 164,81 22,-47 8,-130 12,-190 60,0 197,55 245,82 81,46 174,115 229,188 13,17 23,29 36,47 24,34 47,63 71,96 12,18 17,36 47,35 27,0 39,-15 42,-41 14,-114 -37,-313 -90,-411 -78,-145 -186,-253 -333,-334 -89,-50 -147,-54 -248,-85l-2 -197z"/>
 </g>
</svg>
