<?xml version="1.0" encoding="UTF-8"?>
<!DOCTYPE svg PUBLIC "-//W3C//DTD SVG 1.1//EN" "http://www.w3.org/Graphics/SVG/1.1/DTD/svg11.dtd">
<!-- Creator: CorelDRAW X7 -->
<svg xmlns="http://www.w3.org/2000/svg" xml:space="preserve" width="4392px" height="3294px" version="1.1" style="shape-rendering:geometricPrecision; text-rendering:geometricPrecision; image-rendering:optimizeQuality; fill-rule:evenodd; clip-rule:evenodd"
viewBox="0 0 439200118 329409862"
 xmlns:xlink="http://www.w3.org/1999/xlink">
 <defs>
  <style type="text/css">
   <![CDATA[
    .fil0 {fill:#1B1F29}
    .fil1 {fill:white}
   ]]>
  </style>
 </defs>
 <g id="Слой_x0020_1">
  <metadata id="CorelCorpID_0Corel-Layer"/>
  <rect class="fil0" width="439200118" height="329409862"/>
  <path class="fil1" d="M210940693 67572402c-12694340,12413715 -52553346,56761053 -57986657,62194246 -53964380,53964380 20494530,101976365 57834771,64632345l15689671 -15689553c7723893,-7728026 22852670,-28532944 31935865,-28532944 8433131,0 16968424,6181405 17966789,14529734 845415,7044065 -9130084,17457154 -14113405,22436341l-31069073 31073442c-10209116,10204983 -23813004,20409848 -20409847,37420790 832660,1665556 1958581,6907651 4971628,8488523 15572626,8170104 58047011,-49755256 70485765,-62193656 53964262,-53960246 -20494530,-101976719 -57834653,-64632463l-15689552 15689789c-7724012,7728145 -22852907,28532708 -31935984,28532708 -8433485,0 -16968660,-6181406 -17967025,-14529734 -841281,-7043829 9129966,-17456800 14109271,-22436341l31073561 -31073324c14426036,-14425918 32901633,-29335842 11333030,-45861243 -5136979,-3936414 -3977397,-4367625 -8394155,-48660z"/>
 </g>
</svg>
