<?xml version="1.0" encoding="UTF-8"?>
<!DOCTYPE svg PUBLIC "-//W3C//DTD SVG 1.1//EN" "http://www.w3.org/Graphics/SVG/1.1/DTD/svg11.dtd">
<!-- Creator: CorelDRAW X7 -->
<svg xmlns="http://www.w3.org/2000/svg" xml:space="preserve" width="2480px" height="2480px" version="1.1" style="shape-rendering:geometricPrecision; text-rendering:geometricPrecision; image-rendering:optimizeQuality; fill-rule:evenodd; clip-rule:evenodd"
viewBox="0 0 247999882 247999882"
 xmlns:xlink="http://www.w3.org/1999/xlink">
 <defs>
  <style type="text/css">
   <![CDATA[
    .fil0 {fill:#1B1F29}
    .fil1 {fill:white}
   ]]>
  </style>
 </defs>
 <g id="Слой_x0020_1">
  <metadata id="CorelCorpID_0Corel-Layer"/>
  <polygon class="fil0" points="0,0 247999882,0 247999882,247999882 0,247999882 "/>
  <path class="fil1" d="M118564332 63027500c-7968540,7792438 -32989005,35630303 -36399673,39040853 -33874714,33874832 12864917,64013130 36304359,40571326l9848737 -9848737c4848541,-4851022 14345192,-17910821 20046962,-17910821 5293699,0 10651532,3880274 11278224,9120706 530670,4421691 -5731179,10958264 -8859327,14083814l-19502829 19505545c-6408541,6405943 -14948027,12811768 -12811767,23489993 522637,1045511 1229409,4336061 3120825,5328423 9775273,5128581 36437469,-31232588 44245616,-39040499 33874714,-33872115 -12864917,-64013248 -36304240,-40571326l-9848737 9848855c-4848542,4851140 -14345311,17910703 -20046962,17910703 -5293936,0 -10651651,-3880274 -11278343,-9120706 -528071,-4421573 5731061,-10958028 8856729,-14083814l19505663 -19505545c9055509,-9055509 20653104,-18414797 7114014,-28788180 -3224645,-2470983 -2496732,-2741692 -5269251,-30590z"/>
 </g>
</svg>
